<?xml version="1.0" standalone="no"?>
<!DOCTYPE svg PUBLIC "-//W3C//DTD SVG 20010904//EN"
 "http://www.w3.org/TR/2001/REC-SVG-20010904/DTD/svg10.dtd">
<svg version="1.0" xmlns="http://www.w3.org/2000/svg"
 width="1008.000000pt" height="1008.000000pt" viewBox="0 0 1008.000000 1008.000000"
 preserveAspectRatio="xMidYMid meet">
<metadata>
Created by potrace 1.11, written by Peter Selinger 2001-2013
</metadata>
<g transform="translate(0.000000,1008.000000) scale(0.100000,-0.100000)"
fill="#000000" stroke="none">
<path d="M3481 8384 c-94 -314 -113 -364 -130 -355 -27 15 -222 68 -327 90
-134 28 -226 42 -354 55 -36 4 -85 9 -110 12 -56 6 -422 6 -470 0 -19 -2 -69
-8 -110 -11 -41 -4 -82 -9 -91 -10 -9 -2 -40 -6 -70 -10 -80 -9 -274 -54 -359
-82 -315 -104 -475 -281 -438 -483 23 -127 109 -193 215 -166 48 13 52 16 58
46 51 264 274 418 655 456 50 5 361 5 385 0 11 -2 52 -7 90 -10 163 -17 369
-60 525 -112 112 -38 291 -115 296 -128 6 -16 -185 -579 -313 -921 -8 -22 -16
-44 -17 -50 -2 -5 -6 -17 -9 -25 -11 -25 -69 -184 -71 -195 -2 -5 -8 -21 -13
-35 -6 -14 -22 -59 -37 -100 -14 -41 -31 -84 -36 -95 -5 -11 -23 -58 -40 -105
-17 -47 -56 -148 -87 -225 -31 -77 -66 -169 -78 -205 -22 -61 -63 -161 -69
-168 -2 -1 -37 29 -77 68 -97 91 -139 121 -186 127 -165 22 -281 -165 -228
-367 25 -97 77 -187 175 -305 l88 -106 -55 -137 c-30 -75 -61 -150 -68 -167
-7 -16 -29 -73 -50 -125 -20 -52 -41 -102 -45 -111 -5 -9 -49 -117 -99 -240
-49 -123 -151 -375 -226 -559 -75 -184 -147 -362 -160 -395 -19 -50 -90 -224
-128 -315 -18 -44 -25 -77 -32 -149 -7 -63 8 -91 54 -111 28 -11 34 -10 65 14
19 14 38 26 41 26 8 0 35 26 35 34 0 3 21 27 48 54 57 60 107 147 151 267 18
50 40 106 49 125 9 19 17 37 18 40 1 3 5 15 9 27 4 13 12 23 18 23 6 0 7 3 4
6 -4 4 0 19 8 33 17 30 42 92 43 105 0 5 7 13 16 18 9 5 16 15 16 22 0 8 14
40 31 72 17 33 44 94 59 136 16 42 43 104 60 137 16 34 27 61 24 61 -4 0 -1 7
6 15 7 8 10 15 6 15 -3 0 8 24 25 53 17 28 34 59 39 67 24 41 121 242 140 290
35 89 82 189 128 272 23 43 42 83 42 89 0 6 71 -62 158 -151 l158 -163 42 27
c57 36 128 63 188 71 147 20 308 74 302 101 -2 10 -116 147 -228 274 -12 14
-40 47 -63 75 -23 27 -54 63 -68 79 l-27 31 97 16 c346 58 682 264 936 573 57
69 145 199 145 214 0 6 4 12 8 12 13 0 116 223 151 327 112 329 115 702 9
1008 -30 88 -88 201 -148 291 -59 87 -221 254 -316 324 l-61 45 44 91 c35 74
45 108 51 173 4 45 6 81 3 81 -4 0 -7 18 -7 39 -2 43 -53 147 -89 184 -47 45
-161 98 -228 104 l-63 5 -33 -108z m268 -950 c28 -14 51 -29 51 -35 0 -5 6 -9
13 -9 21 0 197 -178 197 -199 0 -6 5 -11 10 -11 6 0 10 -7 10 -15 0 -8 4 -15
9 -15 5 0 12 -13 16 -30 4 -16 10 -30 14 -30 4 0 14 -12 21 -27 8 -16 19 -35
26 -43 37 -48 58 -342 40 -560 -5 -52 -10 -117 -11 -143 -2 -26 -8 -62 -14
-80 -6 -18 -12 -44 -15 -58 -7 -42 -46 -176 -63 -217 -40 -97 -114 -240 -137
-267 -14 -16 -26 -35 -26 -40 0 -15 -37 -60 -94 -114 -27 -25 -71 -70 -99 -98
-28 -29 -56 -53 -64 -53 -7 0 -13 -4 -13 -8 0 -4 -17 -14 -37 -21 -21 -8 -49
-22 -63 -31 -27 -19 -111 -50 -135 -50 -8 0 -15 -4 -15 -10 0 -5 -9 -10 -20
-10 -11 0 -20 -4 -20 -8 0 -10 -13 -11 -144 -16 -60 -1 -130 1 -155 6 -25 5
-64 10 -86 12 -35 2 -153 33 -163 41 -2 2 12 33 32 68 19 36 32 67 29 71 -4 3
-2 6 4 6 6 0 18 19 27 41 9 23 30 60 45 83 15 22 31 54 35 70 10 41 66 159 80
168 6 4 7 8 3 8 -5 0 0 12 11 28 11 15 35 63 53 107 18 44 46 101 61 128 43
73 72 141 83 194 6 31 57 177 65 188 4 6 13 28 20 50 7 22 34 83 61 135 26 52
55 118 65 145 9 28 33 86 54 130 21 44 50 107 65 140 29 64 91 244 99 288 2
15 7 31 10 35 3 5 6 25 8 45 1 21 3 37 4 37 1 0 25 -11 53 -26z"/>
<path d="M8255 7946 c-84 -37 -209 -170 -298 -319 -39 -63 -187 -359 -187
-373 0 -2 -11 -27 -24 -56 -73 -164 -102 -258 -142 -453 -2 -11 -8 -42 -14
-70 -6 -27 -12 -63 -14 -80 -2 -16 -13 -95 -25 -175 -11 -80 -23 -165 -26
-190 -14 -104 -14 -455 0 -535 48 -266 162 -371 415 -381 81 -3 109 1 185 23
162 47 398 133 490 178 188 93 293 214 295 341 0 49 -16 66 -68 70 -45 2 -82
-12 -176 -70 -97 -58 -151 -76 -296 -97 -67 -10 -233 -7 -285 4 -117 27 -164
50 -224 109 -74 74 -117 176 -136 328 -6 52 -7 263 -1 300 2 14 7 59 11 100 8
90 37 248 71 384 102 406 260 587 388 446 39 -43 64 -90 121 -225 65 -153 99
-196 140 -177 30 14 58 76 89 205 52 209 54 354 7 491 -62 179 -185 271 -296
222z"/>
<path d="M7175 6761 c-79 -25 -144 -95 -221 -236 -20 -38 -48 -87 -61 -107
-13 -21 -20 -38 -16 -38 5 0 4 -4 -2 -8 -5 -4 -20 -25 -32 -47 -11 -22 -30
-56 -42 -75 -11 -19 -24 -42 -28 -50 -4 -8 -35 -64 -69 -123 -35 -59 -66 -116
-69 -127 -4 -11 -10 -20 -15 -20 -4 0 -11 -15 -14 -34 -4 -19 -10 -36 -14 -38
-4 -2 -15 -25 -26 -53 -10 -27 -27 -72 -38 -100 -11 -27 -44 -118 -73 -201
-29 -84 -58 -161 -64 -173 -7 -12 -9 -21 -6 -21 3 0 -4 -18 -15 -40 -11 -21
-20 -45 -20 -52 0 -7 -7 -26 -15 -42 -9 -16 -17 -37 -18 -45 -1 -9 -7 -23 -12
-31 -5 -8 -10 -19 -11 -25 -1 -5 -13 -40 -27 -77 -14 -36 -23 -68 -20 -71 2
-3 0 -14 -5 -24 -5 -10 -12 -34 -15 -53 -3 -19 -10 -57 -17 -85 -7 -27 -14
-59 -16 -70 -2 -11 -5 -27 -7 -35 -2 -8 -7 -33 -11 -55 -4 -22 -12 -53 -17
-70 -5 -16 -11 -46 -13 -65 -3 -19 -10 -50 -15 -67 -5 -18 -8 -33 -6 -33 2 0
-2 -15 -9 -32 -7 -18 -11 -39 -9 -45 3 -7 1 -13 -4 -13 -7 0 -11 -18 -13 -72
-1 -10 -5 -18 -8 -18 -4 0 -8 -9 -9 -19 -3 -34 -55 -181 -64 -181 -5 0 -9 -7
-9 -15 0 -20 -40 -41 -50 -25 -6 10 -10 143 -11 360 0 65 8 210 15 285 3 22 8
74 11 115 4 41 9 84 11 95 2 11 7 47 9 80 3 33 8 74 10 90 2 17 7 48 10 70 10
73 14 100 15 100 0 0 3 34 5 75 3 41 8 100 11 130 3 30 7 80 9 110 2 30 7 80
10 110 9 66 14 109 20 175 5 52 9 78 27 180 5 33 12 74 14 90 2 17 6 44 10 60
3 17 7 39 9 50 3 27 17 115 22 140 2 11 7 57 10 102 4 68 1 93 -17 149 -22 66
-53 110 -70 99 -5 -3 -11 -2 -14 3 -8 14 -63 5 -111 -18 -61 -29 -134 -97
-209 -194 -66 -84 -131 -181 -152 -226 -4 -8 -18 -31 -30 -51 -34 -55 -134
-254 -134 -267 0 -7 -4 -12 -10 -12 -5 0 -10 -4 -10 -10 0 -5 -20 -53 -45
-106 -25 -53 -48 -107 -51 -120 -3 -13 -10 -24 -15 -24 -5 0 -9 -6 -9 -14 0
-12 -18 -55 -61 -151 -15 -34 -32 -79 -35 -93 -1 -8 -9 -28 -17 -45 -8 -18
-31 -77 -51 -132 -21 -55 -42 -111 -49 -125 -6 -14 -11 -29 -12 -35 0 -5 -4
-13 -8 -16 -4 -3 -9 -16 -10 -27 -1 -12 -5 -22 -9 -22 -4 0 -7 -3 -6 -7 3 -14
-13 -73 -21 -73 -4 0 -7 -9 -8 -21 -2 -17 -12 -51 -41 -129 -3 -8 -4 -19 -3
-24 1 -4 -3 -14 -10 -22 -6 -7 -8 -18 -4 -24 3 -5 1 -10 -4 -10 -6 0 -10 -3
-9 -7 5 -17 -27 -101 -36 -96 -5 3 -6 1 -2 -5 5 -9 -22 -106 -51 -182 -7 -18
-10 -29 -17 -55 -4 -20 -15 -49 -38 -102 -6 -16 -10 -32 -9 -37 1 -5 -6 -17
-16 -28 -10 -11 -17 -22 -15 -24 1 -2 2 -8 2 -14 0 -14 -30 -12 -35 3 -24 69
-24 305 1 497 3 19 6 53 9 75 2 22 6 54 9 70 3 17 8 50 11 75 3 25 8 56 12 70
6 26 13 80 16 118 0 12 4 22 7 22 3 0 6 8 6 18 1 21 10 81 24 152 6 30 13 71
16 90 3 19 9 42 13 50 4 8 6 27 5 43 0 15 2 27 5 27 4 0 7 10 8 23 0 12 6 49
12 82 6 33 14 71 16 85 9 45 13 65 15 65 1 0 3 11 5 25 2 14 6 36 10 50 3 14
8 35 11 48 17 88 21 107 24 107 1 0 3 9 5 19 2 11 11 51 19 90 9 39 17 80 19
91 1 11 6 25 10 31 4 7 8 28 9 48 2 20 5 36 8 36 3 0 7 10 8 23 4 37 7 51 15
65 5 6 6 12 4 12 -3 0 3 36 13 81 28 123 16 236 -27 254 -32 14 -105 -1 -141
-30 -95 -73 -189 -203 -282 -390 -30 -60 -58 -111 -62 -113 -5 -2 -8 -12 -8
-23 0 -10 -4 -19 -10 -19 -5 0 -10 -9 -10 -20 0 -11 -4 -20 -10 -20 -5 0 -10
-9 -10 -20 0 -11 -4 -20 -8 -20 -7 0 -31 -52 -30 -67 0 -3 -4 -9 -9 -12 -5 -3
-17 -26 -28 -50 -15 -34 -219 -353 -297 -464 -73 -105 -124 -173 -130 -175 -4
-2 -8 -8 -8 -14 0 -10 -70 -101 -82 -106 -5 -2 -8 -8 -8 -14 0 -5 -6 -15 -12
-22 -7 -7 -29 -32 -48 -56 -19 -24 -40 -48 -45 -54 -6 -6 -28 -33 -50 -61 -22
-27 -42 -52 -45 -55 -3 -3 -23 -29 -45 -57 -21 -29 -43 -53 -47 -53 -4 0 -7
-4 -5 -8 4 -15 -161 -162 -182 -162 -6 0 -11 -4 -11 -9 0 -17 -166 -80 -192
-73 -5 1 -8 -2 -8 -7 0 -5 -22 -12 -50 -16 -27 -4 -50 -11 -50 -17 0 -5 -4 -7
-8 -4 -13 8 -121 -23 -175 -50 -64 -33 -134 -98 -154 -143 -8 -20 -15 -60 -15
-89 -1 -45 3 -57 28 -83 48 -50 85 -67 145 -64 65 3 106 13 139 34 13 9 24 14
25 11 0 -6 98 61 107 74 4 6 8 8 8 4 0 -7 170 163 170 169 0 5 172 168 215
204 22 19 45 39 51 44 6 6 40 35 74 65 96 85 130 117 130 124 0 4 6 13 13 20
6 8 19 24 27 36 8 12 21 29 28 36 7 8 11 14 8 14 -3 0 1 8 10 18 30 34 84 111
84 121 0 5 9 16 20 24 11 8 17 17 13 20 -3 4 -1 7 5 7 7 0 12 5 12 11 0 5 13
27 28 47 59 77 87 117 82 119 -3 1 2 8 11 15 8 7 35 38 59 68 142 179 199 180
206 3 2 -46 6 -88 8 -92 3 -5 2 -11 -2 -15 -4 -4 -8 -24 -8 -44 -1 -20 -4 -57
-8 -82 -10 -68 -18 -123 -21 -145 -1 -11 -3 -20 -5 -20 -2 0 -5 -19 -14 -100
-6 -56 -20 -117 -30 -133 -3 -6 -2 -14 4 -17 7 -4 8 -11 1 -18 -5 -7 -12 -28
-14 -47 -3 -19 -6 -35 -7 -35 -1 0 -4 -13 -6 -30 -3 -16 -11 -61 -20 -100 -22
-107 -24 -114 -39 -200 -7 -44 -13 -87 -13 -95 0 -8 -4 -28 -7 -45 -4 -16 -8
-46 -10 -65 -1 -19 -4 -35 -5 -35 -2 0 -7 -51 -11 -104 -3 -45 23 -66 182
-155 164 -91 305 -145 416 -160 l42 -5 11 42 c6 23 14 51 18 62 3 11 7 23 8
28 1 4 2 8 4 10 2 2 6 17 14 55 3 13 8 32 11 42 3 10 7 27 9 37 2 10 20 79 40
153 21 74 39 146 42 160 3 14 7 30 8 35 13 50 21 79 37 134 10 34 21 73 23 85
2 11 21 82 41 156 21 74 39 142 40 150 2 8 4 15 5 15 1 0 3 7 5 15 1 8 10 44
20 80 10 36 18 73 18 83 1 9 5 17 10 17 4 0 7 6 6 13 -1 6 0 19 4 27 3 8 17
56 32 105 15 50 29 97 32 105 8 20 11 30 17 59 5 20 15 53 44 131 3 8 6 20 7
25 7 28 78 231 84 240 4 6 16 33 26 60 32 91 106 222 131 234 20 9 26 7 38
-12 28 -42 35 -141 21 -282 -4 -44 -8 -104 -9 -132 -1 -29 -3 -53 -6 -53 -3 0
-6 -19 -6 -42 -2 -49 -10 -152 -19 -218 -3 -25 -8 -67 -10 -95 -3 -27 -8 -66
-10 -85 -4 -32 -15 -159 -19 -220 -1 -14 -4 -29 -6 -35 -3 -5 -5 -36 -5 -67 0
-32 -2 -58 -5 -58 -3 0 -6 -19 -6 -43 -2 -46 -11 -162 -13 -162 -1 0 -4 -38
-7 -85 -2 -47 -7 -101 -10 -120 -3 -19 -7 -49 -9 -67 -2 -17 -7 -51 -11 -75
-3 -24 -8 -61 -10 -83 -2 -22 -6 -53 -8 -70 -2 -16 -7 -57 -10 -90 -4 -33 -9
-78 -11 -100 -3 -22 -7 -62 -11 -90 -3 -27 -7 -66 -10 -85 -10 -81 -18 -157
-18 -192 -1 -21 -3 -38 -6 -38 -3 0 -6 -12 -6 -27 -1 -33 -12 -158 -14 -158
-1 0 -3 -25 -5 -55 -10 -186 -16 -253 -21 -261 -3 -5 0 -9 6 -9 6 0 8 -5 4
-11 -9 -16 -8 -114 2 -130 4 -7 3 -10 -2 -6 -5 3 -9 -25 -9 -64 0 -38 3 -69 7
-69 11 0 5 -23 -7 -32 -7 -5 -7 -8 0 -8 6 0 11 -19 12 -43 2 -72 14 -153 35
-242 7 -27 11 -53 10 -57 -1 -5 3 -8 8 -8 6 0 10 -9 10 -20 0 -11 5 -20 11
-20 5 0 8 -4 5 -8 -6 -10 38 -54 71 -71 18 -9 50 -9 73 -1 3 2 9 2 14 1 5 -1
27 11 50 26 38 26 53 40 105 103 11 14 25 30 31 37 5 7 17 28 27 47 9 20 20
36 25 36 4 0 8 8 8 18 0 10 4 22 9 27 5 6 25 51 44 100 20 50 41 104 48 120
15 36 16 41 18 61 0 9 6 12 13 8 7 -5 8 -3 3 5 -4 7 0 31 9 54 8 23 17 53 20
67 2 14 9 39 16 55 6 17 13 37 15 45 2 8 11 47 20 85 9 39 17 76 17 83 1 6 4
12 8 12 3 0 6 8 7 18 1 9 4 28 7 42 6 28 14 62 22 100 3 14 7 32 9 40 2 8 4
15 5 15 2 0 7 26 15 85 12 90 14 109 20 138 8 39 14 81 19 127 2 22 7 47 9 55
3 8 8 38 11 65 3 28 8 61 11 75 3 14 8 39 10 55 4 32 14 94 21 129 2 11 6 35
9 51 6 32 12 64 21 105 3 14 7 36 10 50 3 14 12 50 20 80 9 30 18 65 21 78 12
48 73 49 73 1 0 -11 4 -19 10 -19 5 0 12 -16 16 -35 3 -19 10 -37 14 -40 4 -2
6 -16 5 -30 -2 -14 0 -25 4 -25 3 0 7 -24 8 -52 5 -154 11 -237 17 -247 4 -6
2 -11 -4 -11 -6 0 -9 -4 -6 -9 3 -5 8 -51 12 -103 3 -51 7 -118 10 -148 3 -30
4 -62 4 -70 0 -8 0 -24 1 -35 0 -11 1 -39 2 -62 1 -24 7 -43 12 -43 6 0 3 -5
-5 -10 -8 -5 -10 -10 -5 -10 6 0 11 -17 11 -38 1 -20 5 -71 9 -112 4 -41 8
-87 8 -102 0 -16 5 -28 11 -28 6 0 4 -5 -4 -10 -8 -5 -10 -10 -4 -10 5 0 11
-10 11 -22 4 -56 10 -95 17 -106 4 -7 8 -26 8 -42 1 -17 4 -30 8 -30 4 0 7 -6
8 -12 0 -7 3 -20 5 -28 3 -8 8 -30 12 -47 4 -18 11 -33 16 -33 5 0 9 -14 9
-31 0 -17 4 -28 10 -24 6 3 10 -3 10 -14 0 -11 5 -23 10 -26 6 -3 10 -15 10
-26 0 -10 5 -19 10 -19 6 0 10 -9 10 -19 0 -11 5 -23 11 -26 11 -8 33 -55 31
-67 -1 -5 2 -8 7 -8 5 0 21 -25 35 -55 15 -30 32 -57 37 -60 5 -4 7 -11 4 -16
-4 -5 -1 -9 5 -9 6 0 8 -4 5 -10 -3 -5 -2 -10 3 -10 5 0 17 -18 27 -40 10 -22
21 -40 25 -40 3 0 12 -16 20 -35 8 -19 17 -35 22 -35 4 0 8 -7 8 -15 0 -7 6
-18 14 -22 8 -4 15 -12 16 -18 1 -12 69 -118 102 -159 34 -42 78 -85 104 -103
13 -8 21 -19 18 -24 -3 -5 -2 -9 3 -8 20 3 34 -2 28 -11 -4 -6 -3 -10 2 -9 21
4 34 -2 27 -13 -4 -6 -3 -8 3 -5 6 4 27 0 47 -8 20 -8 36 -12 36 -8 0 5 5 1
10 -7 9 -13 10 -13 10 0 0 13 1 13 10 0 5 -8 10 -10 10 -4 0 7 10 12 23 12 12
-1 40 3 62 7 22 4 46 8 53 8 6 0 12 4 12 9 0 4 10 8 23 8 13 0 28 5 35 12 9 9
12 9 12 -2 0 -9 5 -8 20 5 11 10 20 15 20 10 0 -4 7 -2 15 5 8 7 15 9 15 5 0
-5 10 0 22 11 12 10 18 13 14 7 -11 -19 2 -16 26 7 16 15 24 17 29 8 6 -9 10
-7 15 6 4 11 13 16 26 12 11 -2 18 -2 15 1 -9 9 17 31 30 26 7 -3 13 0 13 6 0
6 7 11 15 11 8 0 15 5 15 12 0 6 3 8 6 5 4 -4 21 4 38 16 17 12 34 22 37 22 3
0 13 7 21 15 9 8 31 26 49 40 54 42 257 250 243 250 -3 0 13 23 36 50 23 28
38 50 33 50 -4 0 -3 4 3 8 16 11 79 106 76 115 -1 4 2 7 6 7 10 0 37 50 34 63
-1 4 3 7 8 7 6 0 10 7 10 15 0 8 5 15 12 15 6 0 8 3 5 6 -4 4 2 19 12 33 16
23 129 235 131 246 0 3 19 43 40 91 22 47 40 88 40 90 0 2 14 34 32 71 24 51
32 84 34 135 2 65 2 66 -27 78 -41 17 -71 6 -113 -40 -20 -22 -40 -40 -44 -40
-5 0 -15 -11 -22 -25 -7 -14 -17 -25 -20 -25 -4 0 -27 -25 -50 -56 -24 -31
-93 -107 -154 -169 -61 -61 -142 -147 -181 -190 -159 -179 -245 -248 -356
-286 -75 -25 -193 -30 -261 -10 -53 16 -136 58 -163 83 -11 10 -29 26 -40 35
-24 21 -56 66 -78 108 -13 27 -86 232 -91 260 -2 6 -10 27 -19 49 -9 21 -17
42 -17 46 0 5 -13 44 -30 87 -16 43 -31 87 -33 98 -2 11 -6 27 -9 35 -14 39
-68 238 -72 265 -3 17 -8 55 -11 85 -6 58 -12 95 -15 95 -3 0 -7 50 -11 125
-1 30 -8 75 -14 100 -6 25 -10 52 -10 60 1 8 -2 20 -6 25 -3 6 -5 20 -4 33 1
12 -1 22 -5 22 -3 0 -6 15 -5 33 1 17 -1 36 -4 42 -5 10 -9 45 -15 128 -3 29
-5 52 -6 52 -5 0 -13 238 -13 420 -1 193 7 406 17 480 2 17 7 57 10 90 9 90
18 149 24 159 2 4 6 27 8 50 2 22 6 48 7 56 2 8 8 38 12 65 10 57 12 64 15 68
1 1 3 11 4 22 9 59 17 105 26 134 5 17 9 34 9 36 0 3 5 30 11 60 10 49 25 88
85 220 7 17 21 50 31 75 10 25 24 51 31 58 7 8 11 18 8 23 -3 4 1 19 8 31 8
13 25 53 37 90 60 186 10 300 -115 259z"/>
<path d="M3436 4270 c-55 -55 -132 -132 -173 -171 l-74 -70 32 -27 c152 -129
419 -319 592 -421 356 -209 669 -309 992 -316 208 -4 280 6 319 44 39 39 41
111 4 143 -35 30 -55 35 -148 36 -158 2 -278 37 -490 143 -120 61 -369 215
-433 269 -12 10 -51 41 -87 70 -108 85 -157 129 -299 267 -75 73 -136 133
-136 133 0 0 -45 -45 -99 -100z"/>
<path d="M4189 3348 c-1 -7 -3 -22 -4 -33 -2 -11 -6 -47 -9 -80 -4 -33 -9 -76
-12 -95 -3 -19 -7 -55 -9 -80 -3 -25 -7 -70 -11 -100 -4 -30 -8 -73 -9 -95 -1
-22 -4 -40 -5 -40 -1 0 -3 -31 -5 -70 -2 -38 -4 -70 -5 -70 -6 0 -6 -224 0
-246 5 -16 5 -29 0 -29 -4 0 0 -18 11 -40 10 -21 19 -43 19 -48 0 -19 71 -72
98 -73 77 -4 100 4 172 61 83 65 176 179 194 238 4 12 11 22 15 22 4 0 8 6 9
13 1 6 22 81 47 166 25 85 48 168 51 184 3 17 7 33 9 37 5 7 17 68 18 88 0 6
5 12 10 12 6 0 8 3 5 6 -6 5 14 101 27 136 5 12 2 17 -12 16 -104 -3 -383 55
-541 113 -62 23 -62 22 -63 7z"/>
</g>
</svg>
